<svg xmlns="http://www.w3.org/2000/svg" viewBox="0 0 216 216"><g id="Layer_2" data-name="Layer 2"><g id="Layer_1-2" data-name="Layer 1"><g id="SVGRepo_iconCarrier" data-name="SVGRepo iconCarrier"><path d="M64.22,197c10.09,11.55,26,19,43.78,19s33.69-7.44,43.78-19A361.27,361.27,0,0,1,64.22,197Z"/><path d="M189,75.6v7.6a44,44,0,0,0,8.32,25.64l13.29,18.61c12.13,17,2.87,40.1-18.24,45.48a343,343,0,0,1-168.72,0C2.53,167.55-6.73,144.45,5.4,127.45l13.29-18.61A44,44,0,0,0,27,83.2V75.6C27,33.85,63.27,0,108,0S189,33.85,189,75.6Z"/></g></g></g></svg>